<svg xmlns="http://www.w3.org/2000/svg" xmlns:xlink="http://www.w3.org/1999/xlink" width="500" zoomAndPan="magnify" viewBox="0 0 375 374.999991" height="500" preserveAspectRatio="xMidYMid meet" version="1.0"><defs><g/></defs><g fill="#0cc0df" fill-opacity="1"><g transform="translate(12.234379, 266.369232)"><g><path d="M 162.234375 -84.109375 C 163.703125 -69.671875 162.238281 -56.175781 157.84375 -43.625 C 153.445312 -31.070312 146.910156 -20.765625 138.234375 -12.703125 C 129.554688 -4.648438 119.460938 0 107.953125 1.25 C 100.835938 2.09375 93.878906 1.3125 87.078125 -1.09375 C 80.285156 -3.5 73.851562 -7.003906 67.78125 -11.609375 L 67.78125 -6.59375 C 67.78125 -4.707031 67.148438 -3.132812 65.890625 -1.875 C 64.640625 -0.625 63.070312 0 61.1875 0 L 7.84375 0 L 7.84375 -1.890625 C 11.40625 -2.515625 14.441406 -4.289062 16.953125 -7.21875 C 19.460938 -10.144531 20.71875 -13.492188 20.71875 -17.265625 L 20.71875 -194.5625 C 20.71875 -198.332031 19.460938 -201.679688 16.953125 -204.609375 C 14.441406 -207.535156 11.40625 -209.3125 7.84375 -209.9375 L 7.84375 -211.828125 L 61.5 -219.671875 C 61.71875 -219.671875 61.878906 -219.671875 61.984375 -219.671875 C 62.085938 -219.671875 62.242188 -219.671875 62.453125 -219.671875 C 66.003906 -219.671875 67.78125 -217.785156 67.78125 -214.015625 L 67.78125 -150.625 C 74.476562 -154.1875 82.007812 -156.382812 90.375 -157.21875 C 101.882812 -158.476562 112.867188 -155.96875 123.328125 -149.6875 C 133.785156 -143.414062 142.519531 -134.578125 149.53125 -123.171875 C 156.539062 -111.765625 160.773438 -98.742188 162.234375 -84.109375 Z M 78.453125 -11.609375 C 85.359375 -11.609375 91.632812 -14.742188 97.28125 -21.015625 C 102.925781 -27.296875 107.421875 -35.71875 110.765625 -46.28125 C 114.117188 -56.851562 115.796875 -68.519531 115.796875 -81.28125 C 115.796875 -94.25 114.117188 -105.960938 110.765625 -116.421875 C 107.421875 -126.878906 102.925781 -135.242188 97.28125 -141.515625 C 91.632812 -147.796875 85.359375 -150.9375 78.453125 -150.9375 C 75.109375 -150.9375 71.550781 -150.101562 67.78125 -148.4375 L 67.78125 -14.125 C 71.550781 -12.445312 75.109375 -11.609375 78.453125 -11.609375 Z M 78.453125 -11.609375 "/></g></g></g><g fill="#0cc0df" fill-opacity="1"><g transform="translate(186.0834, 266.369232)"><g><path d="M 132.109375 -33.890625 C 140.066406 -32.003906 147.128906 -28.445312 153.296875 -23.21875 C 159.472656 -17.988281 164.390625 -11.609375 168.046875 -4.078125 C 171.703125 3.453125 173.53125 11.609375 173.53125 20.390625 C 173.53125 30.648438 171.125 39.960938 166.3125 48.328125 C 161.507812 56.691406 155.128906 63.382812 147.171875 68.40625 C 139.222656 73.425781 130.4375 75.9375 120.8125 75.9375 C 112.863281 75.9375 105.332031 74.316406 98.21875 71.078125 C 91.101562 67.835938 85.398438 63.492188 81.109375 58.046875 C 76.828125 52.609375 74.6875 46.753906 74.6875 40.484375 C 74.6875 33.785156 77.09375 28.03125 81.90625 23.21875 C 86.71875 18.40625 92.472656 16 99.171875 16 C 105.859375 16 111.554688 18.40625 116.265625 23.21875 C 120.972656 28.03125 123.328125 33.785156 123.328125 40.484375 C 123.328125 47.390625 121.023438 53.140625 116.421875 57.734375 C 114.960938 59.203125 113.707031 60.769531 112.65625 62.4375 C 111.613281 64.113281 111.09375 65.789062 111.09375 67.46875 C 111.09375 71.863281 114.332031 74.0625 120.8125 74.0625 C 130.226562 74.0625 138.753906 71.65625 146.390625 66.84375 C 154.023438 62.03125 160.144531 55.539062 164.75 47.375 C 169.351562 39.21875 171.65625 30.222656 171.65625 20.390625 C 171.65625 12.859375 169.925781 6.0625 166.46875 0 C 163.019531 -6.0625 158.421875 -10.867188 152.671875 -14.421875 C 146.921875 -17.984375 140.488281 -19.765625 133.375 -19.765625 C 126.050781 -19.765625 119.40625 -17.828125 113.4375 -13.953125 C 107.476562 -10.085938 101.882812 -5.382812 96.65625 0.15625 C 91.425781 5.695312 86.195312 11.289062 80.96875 16.9375 C 75.738281 22.59375 70.085938 27.351562 64.015625 31.21875 C 57.953125 35.09375 51.050781 37.03125 43.3125 37.03125 C 35.988281 37.03125 29.238281 35.144531 23.0625 31.375 C 16.894531 27.613281 12.03125 22.488281 8.46875 16 C 4.914062 9.519531 3.140625 2.410156 3.140625 -5.328125 C 3.140625 -14.953125 5.859375 -23.476562 11.296875 -30.90625 C 16.734375 -38.332031 23.640625 -43.300781 32.015625 -45.8125 C 27.203125 -51.675781 23.429688 -58.210938 20.703125 -65.421875 C 17.984375 -72.640625 16.625 -80.226562 16.625 -88.1875 C 16.625 -100.945312 19.867188 -112.554688 26.359375 -123.015625 C 32.847656 -133.472656 41.476562 -141.785156 52.25 -147.953125 C 63.019531 -154.128906 75 -157.21875 88.1875 -157.21875 C 98.851562 -157.21875 108.894531 -155.125 118.3125 -150.9375 C 113.082031 -155.75 107.847656 -162.023438 102.609375 -169.765625 C 97.378906 -177.515625 94.765625 -185.988281 94.765625 -195.1875 C 94.765625 -201.882812 97.171875 -207.640625 101.984375 -212.453125 C 106.796875 -217.265625 112.550781 -219.671875 119.25 -219.671875 C 125.945312 -219.671875 131.644531 -217.265625 136.34375 -212.453125 C 141.050781 -207.640625 143.40625 -201.882812 143.40625 -195.1875 C 143.40625 -189.957031 141.890625 -185.351562 138.859375 -181.375 C 135.828125 -177.40625 132.007812 -174.375 127.40625 -172.28125 C 120.289062 -169.351562 116.734375 -165.378906 116.734375 -160.359375 C 116.734375 -157.640625 117.832031 -155.023438 120.03125 -152.515625 C 122.226562 -150.003906 124.894531 -147.703125 128.03125 -145.609375 C 137.863281 -139.328125 145.601562 -131.21875 151.25 -121.28125 C 156.90625 -111.34375 159.734375 -100.3125 159.734375 -88.1875 C 159.734375 -77.300781 157.273438 -67.097656 152.359375 -57.578125 C 147.441406 -48.066406 140.691406 -40.171875 132.109375 -33.890625 Z M 88.1875 -155.34375 C 72.070312 -155.34375 64.015625 -132.957031 64.015625 -88.1875 C 64.015625 -48.851562 70.289062 -26.78125 82.84375 -21.96875 C 86.40625 -24.0625 89.910156 -25.941406 93.359375 -27.609375 C 96.804688 -29.285156 100.207031 -30.753906 103.5625 -32.015625 C 109.625 -42.890625 112.65625 -61.613281 112.65625 -88.1875 C 112.65625 -132.957031 104.5 -155.34375 88.1875 -155.34375 Z M 22.59375 -26.671875 C 22.59375 -21.023438 24.628906 -16.160156 28.703125 -12.078125 C 32.785156 -8.003906 37.65625 -5.96875 43.3125 -5.96875 C 49.164062 -5.96875 55.019531 -7.429688 60.875 -10.359375 C 66.738281 -13.285156 72.804688 -16.421875 79.078125 -19.765625 C 69.867188 -21.023438 61.289062 -23.847656 53.34375 -28.234375 C 45.394531 -32.628906 38.597656 -38.070312 32.953125 -44.5625 C 26.046875 -40.375 22.59375 -34.410156 22.59375 -26.671875 Z M 22.59375 -26.671875 "/></g></g></g></svg>